<svg id="Layer_1" data-name="Layer 1" xmlns="http://www.w3.org/2000/svg" width="50" height="50" viewBox="0 0 50 50"><defs><style>.cls-1{fill:#231f20;}</style></defs><rect class="cls-1" x="1.12" width="47.88" height="0.12"/><rect class="cls-1" x="1.12" y="49.88" width="47.88" height="0.12"/><polyline class="cls-1" points="49.88 1.12 49.88 49 50 49 50 1.12"/><polyline class="cls-1" points="0.13 49 0.13 1.12 0.06 1.12 0 1.12 0 49"/><polygon class="cls-1" points="1.25 1.25 0 1.25 0 1 1 1 1 0 1.25 0 1.25 1.25"/><polygon class="cls-1" points="1.25 50 1 50 1 49.13 0 49.11 0 48.87 1.25 48.88 1.25 50"/><polygon class="cls-1" points="49.13 50 48.88 50 48.88 48.88 50 48.88 50 49.13 49.13 49.13 49.13 50"/><polygon class="cls-1" points="50 1.25 48.88 1.25 48.88 0 49.13 0 49.13 1 50 1 50 1.25"/></svg>